<svg xmlns="http://www.w3.org/2000/svg" width="700" height="820" viewBox="0 0 700 820">
  <rect x="0" y="0" width="700" height="820" fill="#0b1220"/>
  <g transform="translate(94,40) scale(0.78)">
    <svg xmlns="http://www.w3.org/2000/svg" width="512" height="512" viewBox="0 0 512 512">
  <defs>
    <filter id="shadow" x="-50%" y="-50%" width="200%" height="200%">
      <feDropShadow dx="0" dy="6" stdDeviation="8" flood-color="#1f2a44" flood-opacity="0.6"/>
    </filter>
  </defs>
  <rect rx="32" ry="32" x="16" y="16" width="480" height="480" fill="#0b1220" stroke="#1f2a44" stroke-width="2"/>
  <rect rx="24" ry="24" x="48" y="64" width="416" height="384" fill="#0f172a" stroke="#1f2a44" stroke-width="1.5"/>
  <!-- top bar -->
  <rect rx="24" ry="24" x="48" y="64" width="416" height="44" fill="none" stroke="#1f2a44" stroke-width="1"/>
  <circle cx="76" cy="86" r="6" fill="#ef4444"/>
  <circle cx="100" cy="86" r="6" fill="#f59e0b"/>
  <circle cx="124" cy="86" r="6" fill="#22c55e"/>
  <!-- Miller columns -->
  <line x1="192" y1="108" x2="192" y2="448" stroke="#1f2a44" stroke-width="1.5"/>
  <line x1="336" y1="108" x2="336" y2="448" stroke="#1f2a44" stroke-width="1.5"/>
  <!-- folder list bullets -->
  <g stroke="#9ca3af" stroke-width="10" stroke-linecap="round">
    <line x1="88" y1="148" x2="152" y2="148"/>
    <line x1="88" y1="184" x2="152" y2="184"/>
    <line x1="88" y1="220" x2="152" y2="220"/>
    <line x1="88" y1="256" x2="152" y2="256"/>
  </g>
  <!-- starred repos lines -->
  <g stroke="#e5e7eb" stroke-width="8" stroke-linecap="round">
    <line x1="216" y1="156" x2="312" y2="156"/>
    <line x1="216" y1="196" x2="312" y2="196"/>
    <line x1="216" y1="236" x2="312" y2="236"/>
    <line x1="216" y1="276" x2="312" y2="276"/>
  </g>
  <!-- preview pane lines -->
  <g stroke="#9ca3af" stroke-width="6" stroke-linecap="round">
    <line x1="360" y1="156" x2="424" y2="156"/>
    <line x1="360" y1="184" x2="440" y2="184"/>
    <line x1="360" y1="212" x2="440" y2="212"/>
    <line x1="360" y1="240" x2="424" y2="240"/>
  </g>
  <!-- star -->
  <path d="M256.00,202.00 L268.93,232.20 L301.65,235.17 L276.92,256.80 L284.21,288.83 L256.00,272.00 L227.79,288.83 L235.08,256.80 L210.35,235.17 L243.07,232.20 Z" fill="#ffd34d" filter="url(#shadow)"/>
  <!-- cursor caret -->
  <path d="M 216 316 L 216 346" stroke="#00d4ff" stroke-width="6" stroke-linecap="round"/>
  <!-- subtle G arc -->
  <path d="M 136 372 A 136 136 0 0 0 400 372" fill="none" stroke="#a78bfa" stroke-opacity="0.35" stroke-width="10" stroke-linecap="round"/>
</svg>
  </g>
  <text x="350" y="670" text-anchor="middle" font-family="JetBrains Mono, SFMono-Regular, Menlo, Consolas, monospace" font-size="96" font-weight="700" fill="#e5e7eb">Ganger</text>
  <text x="350" y="720" text-anchor="middle" font-family="JetBrains Mono, SFMono-Regular, Menlo, Consolas, monospace" font-size="28" letter-spacing="6" fill="#9ca3af">T E R M I N A L   S T A R S   R A N G E R</text>
</svg>